<?xml version="1.0" encoding="UTF-8" standalone="no"?><svg xmlns="http://www.w3.org/2000/svg" xmlns:xlink="http://www.w3.org/1999/xlink" clip-rule="evenodd" stroke-miterlimit="10" viewBox="0 0 540 960"><desc>SVG generated by Keynote</desc><defs><pattern id="F1912D71-DC35-4C25-B1C6-841E9917928A" patternUnits="userSpaceOnUse" width="600" height="600" viewBox="0 0 600 600"><image xlink:href="../../350047F8-41B4-4ED4-B2F2-AF340A294AAA/assets/C3C0FC898C94653CAF8AD846D6CCD108.png" width="600.00" height="600.00"></image></pattern></defs><g transform="matrix(1.00, 0.00, -0.00, -1.00, 0.0, 960.0)"><path d="M 0.0 960.0 L 540.0 960.0 L 540.0 0.0 L 0.0 0.0 Z M 0.0 960.0 " fill="#FEFFFF"></path><image xlink:href="1C15790831038B5B310C1BC4AD67117F.png" width="325.00" height="325.00" transform="matrix(1.00, 0.00, -0.00, -1.00, 107.4, 488.8)" opacity="0.50"></image><g><clipPath id="clip0x6080010a1aa0"><path d="M 385.0 441.2 C 448.5 377.7 448.5 274.7 385.0 211.2 C 321.5 147.7 218.5 147.7 155.0 211.2 C 91.5 274.7 91.5 377.7 155.0 441.2 C 218.5 504.7 321.5 504.7 385.0 441.2 Z M 385.0 441.2 "></path></clipPath><g clip-path="url(#clip0x6080010a1aa0)"><path d="M 91.5 147.7 L 448.5 147.7 L 448.5 504.7 L 91.5 504.7 Z M 91.5 147.7 " fill="url(#F1912D71-DC35-4C25-B1C6-841E9917928A)"></path></g></g><image xlink:href="../../350047F8-41B4-4ED4-B2F2-AF340A294AAA/assets/52EAB57500388DD6B3224DEF3A6756DC.png" width="100.00" height="100.00" transform="matrix(1.00, 0.00, -0.00, -1.00, 66.8, 734.3)" opacity="0.50"></image><path d="M 152.2 719.6 C 171.7 700.1 171.7 668.5 152.2 648.9 C 132.6 629.4 101.0 629.4 81.5 648.9 C 61.9 668.5 61.9 700.1 81.5 719.6 C 101.0 739.2 132.6 739.2 152.2 719.6 Z M 152.2 719.6 " fill="#51A7F9"></path><image xlink:href="../../350047F8-41B4-4ED4-B2F2-AF340A294AAA/assets/52EAB57500388DD6B3224DEF3A6756DC.png" width="100.00" height="100.00" transform="matrix(1.00, 0.00, -0.00, -1.00, 385.2, 734.3)" opacity="0.50"></image><path d="M 470.6 719.6 C 490.1 700.1 490.1 668.5 470.6 648.9 C 451.1 629.4 419.4 629.4 399.9 648.9 C 380.4 668.5 380.4 700.1 399.9 719.6 C 419.4 739.2 451.1 739.2 470.6 719.6 Z M 470.6 719.6 " fill="#51A7F9"></path></g></svg>